<?xml version="1.0" encoding="UTF-8" standalone="no"?>
<!-- Created with Inkscape (http://www.inkscape.org/) -->

<svg
   width="160.73299mm"
   height="160.93903mm"
   viewBox="0 0 160.73299 160.93903"
   version="1.1"
   id="svg1"
   xmlns="http://www.w3.org/2000/svg"
   xmlns:svg="http://www.w3.org/2000/svg">
  <defs
     id="defs1" />
  <g
     id="layer1"
     transform="translate(-23.911017,-62.923727)">
    <rect
       style="fill:#000000;stroke-width:0.395568"
       id="rect1"
       width="160.733"
       height="160.733"
       x="23.911016"
       y="62.923729" />
    <path
       d="m 103.92911,63.13009 -0.1111,0.005 c -9.342602,0.35685 -10.598702,6.49282 -10.516162,10.11721 0.0899,3.95072 2.31556,9.537771 3.175,13.482901 0.87622,4.02682 -10.17395,6.96894 -11.70626,7.51841 -3.1377,1.12515 -5.15662,3.75037 -5.68544,7.390239 -0.73434,5.05695 -0.46213,11.65396 0.83199,15.9396 0.51206,1.69525 0.75817,3.53756 1.01957,5.48648 0.17155,1.28295 0.34968,2.60958 0.61237,3.93982 0.71929,3.63385 1.80396,9.1172 7.55355,11.7321 0.0262,0.12124 0.06,0.3877 0.0295,0.89503 l -0.13488,2.358 c -0.1479,2.62736 -0.30146,5.34496 -0.52503,7.99124 -0.8874,10.51547 1.15948,20.63285 3.1471,29.28969 0.83666,3.64761 0.33132,7.43844 -0.2031,11.45149 -0.0615,0.46004 -0.12256,0.91999 -0.18189,1.37873 -0.91234,7.07122 -0.33759,13.2228 1.75751,18.80557 1.58159,4.21396 1.82147,8.56857 0.76843,12.95115 h 20.337782 c -1.05286,-4.38321 -0.81217,-8.73809 0.76894,-12.95063 2.09424,-5.58233 2.66942,-11.73409 1.75752,-18.80402 -0.0593,-0.45961 -0.11999,-0.92024 -0.1819,-1.38028 -0.53485,-4.01262 -1.03984,-7.80242 -0.20361,-11.45046 1.98762,-8.6577 4.03449,-18.77465 3.1471,-29.28969 -0.22228,-2.62994 -0.37464,-5.3313 -0.52297,-7.94318 -0.0447,-0.80227 -0.0905,-1.605 -0.13694,-2.40812 -0.0301,-0.50905 0.003,-0.77423 0.0294,-0.89504 5.74614,-2.59211 6.8333,-8.08991 7.55302,-11.73107 0.26227,-1.33066 0.44057,-2.65868 0.61341,-3.94291 0.26054,-1.94805 0.50777,-3.78899 1.01854,-5.48338 1.29541,-4.28564 1.56641,-10.88308 0.8325,-15.9396 -0.52839,-3.640299 -2.548,-6.264749 -5.68699,-7.390759 -1.53144,-0.54861 -12.29524,-3.49082 -11.41945,-7.51634 0.85816,-3.94169 2.79928,-9.529691 2.89129,-13.483421 0.0825,-3.62525 -1.17357,-9.76088 -10.51874,-10.11773 z"
       style="fill:#c8a028;fill-opacity:1;stroke-width:0.429941"
       id="path4" />
  </g>
</svg>
